<svg width="800" height="1076" viewBox="0 0 800 1076" fill="none" xmlns="http://www.w3.org/2000/svg">
<style>
@keyframes leafSway {
	0%, 100% {
		transform: translateY(0) rotate(1deg);
	}
	50% {
		transform: translateY(-3px) rotate(-5deg);
	}
}

#leaf1,
#leaf2,
#leaf3,
#leaf4 {
	transform-box: fill-box;
	transform-origin: center bottom;
	animation: leafSway 3.8s ease-in-out infinite;
}

#leaf2 {
	animation-delay: 0.15s;
}

@keyframes smokeRise {
	0% {
		transform: translateY(0) translateX(0) scale(0.92);
		opacity: 0;
	}
	20% {
		opacity: 0.95;
	}
	70% {
		opacity: 0.6;
	}
	100% {
		transform: translateY(-64px) translateX(var(--smoke-shift, 0px)) scale(1.24);
		opacity: 0;
	}
}

#smoke1,
#smoke2,
#smoke3 {
	transform-box: fill-box;
	transform-origin: center bottom;
	animation: smokeRise 2.9s ease-in-out infinite;
}

#smoke2 {
	--smoke-shift: 8px;
	animation-delay: 0.8s;
}

#smoke3 {
	--smoke-shift: -7px;
	animation-delay: 1.6s;
}

#leaf3 {
	animation-delay: 0.3s;
}

#leaf4 {
	animation-delay: 0.45s;
}
</style>
<g clip-path="url(#clip0_1_4)">
<path d="M811.68 0H18.32C4.33615 0 -7 9.73205 -7 21.7371V929.263C-7 941.268 4.33615 951 18.32 951H811.68C825.664 951 837 941.268 837 929.263V21.7371C837 9.73205 825.664 0 811.68 0Z" fill="url(#paint0_linear_1_4)"/>
<path d="M450 0C650 204.952 800 512.381 800 1076V0H450Z" fill="url(#paint1_linear_1_4)"/>
<g opacity="0.8">
<path d="M742.752 491.522H673.087V735.779H742.752V491.522Z" fill="url(#paint2_linear_1_4)"/>
<path d="M681.795 532.231H620.839V735.779H681.795V532.231Z" fill="url(#paint3_linear_1_4)"/>
<path d="M629.547 572.941H577.299V735.779H629.547V572.941Z" fill="url(#paint4_linear_1_4)"/>
<path d="M411.846 274.404L795 138.705V735.779H411.846V274.404Z" stroke="#DCE1F9" stroke-width="3"/>
<path d="M586.007 213.339V735.779" stroke="#DCE1F9" stroke-width="3"/>
<path d="M411.846 477.952L795 342.253" stroke="#DCE1F9" stroke-width="1.5" stroke-dasharray="2 2"/>
<path d="M276 188.72L707.919 60L453.849 735.779H276V188.72Z" fill="url(#paint5_linear_1_4)"/>
</g>
<path d="M6 750.219H806V903.933H6V750.219Z" fill="url(#paint6_linear_1_4)"/>
<path d="M6 895.735H806V946.973H6V895.735Z" fill="url(#paint7_linear_1_4)"/>
<path d="M6 750.219H806" stroke="#BAC2EC" stroke-width="2"/>
<path d="M436 860.893C551.98 860.893 646 835 646 827.076C646 819.153 551.98 814.779 436 814.779C320.02 814.779 226 819.153 226 827.076C226 835 320.02 860.893 436 860.893Z" fill="url(#paint8_linear_1_4)"/>
<path d="M601 841.423C625.853 841.423 646 837.752 646 833.225C646 828.697 625.853 825.027 601 825.027C576.147 825.027 556 828.697 556 833.225C556 837.752 576.147 841.423 601 841.423Z" fill="url(#paint9_linear_1_4)"/>
<path d="M46 750.219H106L98 811.705H54L46 750.219Z" fill="#FCFCFE" stroke="#D3D7E8"/>
<path d="M76 755.343C92.5685 755.343 106 753.049 106 750.219C106 747.389 92.5685 745.095 76 745.095C59.4315 745.095 46 747.389 46 750.219C46 753.049 59.4315 755.343 76 755.343Z" fill="#E5E9F8"/>
<path id ="leaf1" d="M76 746.12C56 709.229 26 647.743 56 617C68 647.743 71 698.981 76 746.12Z" fill="#1B432C"/>
<path id ="leaf2" d="M76 746.12C96 709.229 126 657.99 101 622.124C86 652.867 84 698.981 76 746.12Z" fill="#265C3D"/>
<path id ="leaf3" d="M76 746.12C41 719.476 36 678.486 61 657.99C66 683.61 70 714.352 76 746.12Z" fill="#317A4F"/>
<path id ="leaf4" d="M76 746.12C106 729.724 111 688.733 88 668.238C80 693.857 79 719.476 76 746.12Z" fill="#3D9661"/>
<path id="leaf4" d="M76 746.12C106 729.724 111 688.733 88 668.238C80 693.857 79 719.476 76 746.12Z" fill="#3D9661"/>
<g id="smoke" filter="url(#smokeBlur)" opacity="0.95">
	<path id="smoke1" d="M582 742C576 736 580 730 584 725C588 720 589 716 586 711" fill="none" stroke="#FFFFFF" stroke-width="3.8" stroke-linecap="round" stroke-linejoin="round"/>
	<path id="smoke2" d="M590 744C585 738 589 733 594 728C598 723 600 719 598 714" fill="none" stroke="#F3F7FF" stroke-width="3.2" stroke-linecap="round" stroke-linejoin="round"/>
	<path id="smoke3" d="M575 745C570 739 573 734 578 729C582 724 584 719 582 714" fill="none" stroke="#EDF3FE" stroke-width="2.9" stroke-linecap="round" stroke-linejoin="round"/>
</g>
<path d="M608 771.227C624 771.227 624 808.118 608 808.118" stroke="#1D1D42" stroke-width="7" stroke-linecap="round"/>
<path d="M600 758.93H566C560.477 758.93 556 763.518 556 769.177V816.316C556 821.976 560.477 826.564 566 826.564H600C605.523 826.564 610 821.976 610 816.316V769.177C610 763.518 605.523 758.93 600 758.93Z" fill="#1D1D42"/>
<path d="M583 762.516C597.912 762.516 610 760.91 610 758.93C610 756.949 597.912 755.343 583 755.343C568.088 755.343 556 756.949 556 758.93C556 760.91 568.088 762.516 583 762.516Z" fill="#2E2E60"/>
<path d="M492.826 683.699L248.352 679.222C241.192 679.091 235.298 684.349 235.188 690.967L232.824 833.038C232.714 839.656 238.429 845.127 245.589 845.258L490.063 849.735C497.223 849.866 503.117 844.608 503.227 837.99L505.591 695.918C505.701 689.301 499.986 683.83 492.826 683.699Z" fill="#1C1E24" stroke="#0B0C0E" stroke-width="1.5"/>
<path d="M493.16 692.254L267.294 688.118C264.459 688.066 262.123 690.323 262.076 693.159L259.712 835.235C259.665 838.072 261.925 840.413 264.76 840.465L490.626 844.601C493.461 844.653 495.797 842.396 495.845 839.56L498.208 697.483C498.256 694.647 495.996 692.306 493.16 692.254Z" fill="#F8FAFD"/>
<path d="M279.948 688.357L244.439 687.707L241.901 840.14L277.41 840.789L279.948 688.357Z" fill="#443DF6"/>
<path opacity="0.4" d="M273.249 703.212C274.807 703.241 276.092 701.923 276.12 700.268C276.147 698.613 274.907 697.248 273.348 697.22C271.79 697.191 270.505 698.509 270.477 700.164C270.45 701.819 271.691 703.184 273.249 703.212Z" fill="white"/>
<path opacity="0.8" d="M289.582 714.223L269.438 713.855C268.771 713.843 268.22 714.406 268.208 715.114L268.194 715.968C268.182 716.676 268.714 717.26 269.381 717.272L289.525 717.64C290.193 717.652 290.743 717.088 290.755 716.381L290.769 715.527C290.781 714.819 290.25 714.235 289.582 714.223Z" fill="white"/>
<path opacity="0.5" d="M289.407 724.5L269.263 724.132C268.596 724.12 268.045 724.684 268.033 725.391L268.019 726.246C268.007 726.953 268.539 727.537 269.206 727.549L289.35 727.917C290.017 727.93 290.568 727.366 290.58 726.658L290.594 725.804C290.606 725.096 290.074 724.513 289.407 724.5Z" fill="white"/>
<path opacity="0.5" d="M289.232 734.778L269.088 734.41C268.421 734.397 267.87 734.961 267.858 735.669L267.844 736.523C267.832 737.231 268.364 737.814 269.031 737.827L289.175 738.195C289.842 738.207 290.393 737.643 290.405 736.936L290.419 736.081C290.431 735.374 289.899 734.79 289.232 734.778Z" fill="white"/>
<path opacity="0.5" d="M289.057 745.055L268.913 744.687C268.246 744.675 267.695 745.239 267.683 745.946L267.669 746.801C267.657 747.508 268.189 748.092 268.856 748.104L289 748.472C289.667 748.484 290.218 747.921 290.23 747.213L290.244 746.359C290.256 745.651 289.724 745.068 289.057 745.055Z" fill="white"/>
<path opacity="0.5" d="M288.882 755.333L268.738 754.965C268.07 754.952 267.52 755.516 267.508 756.224L267.494 757.078C267.482 757.786 268.014 758.369 268.681 758.381L288.825 758.75C289.492 758.762 290.043 758.198 290.055 757.49L290.069 756.636C290.081 755.929 289.549 755.345 288.882 755.333Z" fill="white"/>
<path d="M340.831 710.006L310.204 709.445C308.424 709.412 306.955 710.919 306.923 712.81L306.553 735.065C306.522 736.956 307.94 738.516 309.72 738.548L340.347 739.109C342.127 739.142 343.596 737.635 343.627 735.744L343.998 713.489C344.029 711.598 342.611 710.038 340.831 710.006Z" fill="#3CD39E"/>
<path d="M382.727 710.755L352.101 710.194C350.32 710.162 348.851 711.668 348.82 713.559L348.45 735.815C348.418 737.706 349.836 739.265 351.617 739.298L382.243 739.858C384.024 739.891 385.492 738.385 385.524 736.494L385.894 714.238C385.926 712.347 384.508 710.788 382.727 710.755Z" fill="#4A8BF6"/>
<path d="M424.624 711.505L393.997 710.944C392.217 710.911 390.748 712.418 390.717 714.309L390.346 736.564C390.315 738.455 391.733 740.014 393.513 740.047L424.14 740.608C425.92 740.641 427.389 739.134 427.42 737.243L427.791 714.988C427.822 713.097 426.404 711.537 424.624 711.505Z" fill="#F5F7FB" stroke="#E6EAF2"/>
<path d="M472.966 712.372L435.894 711.693C434.113 711.66 432.644 713.167 432.613 715.058L432.243 737.311C432.211 739.202 433.629 740.761 435.41 740.794L472.482 741.473C474.262 741.505 475.731 739.999 475.763 738.108L476.133 715.855C476.164 713.964 474.746 712.405 472.966 712.372Z" fill="#F5F7FB" stroke="#E6EAF2"/>
<path d="M340.218 745.977L309.592 745.416C307.811 745.383 306.342 746.89 306.311 748.781L305.94 771.036C305.909 772.927 307.327 774.487 309.107 774.519L339.734 775.08C341.514 775.113 342.983 773.606 343.015 771.715L343.385 749.46C343.416 747.569 341.998 746.009 340.218 745.977Z" fill="#F5F7FB" stroke="#E6EAF2"/>
<path d="M382.115 746.726L351.488 746.165C349.708 746.133 348.239 747.639 348.207 749.53L347.837 771.786C347.806 773.677 349.223 775.236 351.004 775.269L381.63 775.829C383.411 775.862 384.88 774.356 384.911 772.465L385.281 750.209C385.313 748.318 383.895 746.759 382.115 746.726Z" fill="#FFAA47"/>
<path d="M424.011 747.476L393.385 746.915C391.604 746.882 390.135 748.389 390.104 750.28L389.734 772.535C389.702 774.426 391.12 775.985 392.9 776.018L423.527 776.579C425.307 776.611 426.776 775.105 426.808 773.214L427.178 750.958C427.209 749.068 425.792 747.508 424.011 747.476Z" fill="#F5F7FB" stroke="#E6EAF2"/>
<path d="M472.353 748.343L435.281 747.664C433.501 747.631 432.032 749.138 432 751.029L431.63 773.282C431.599 775.173 433.016 776.732 434.797 776.765L471.869 777.444C473.65 777.476 475.118 775.97 475.15 774.079L475.52 751.826C475.552 749.935 474.134 748.376 472.353 748.343Z" fill="#F5F7FB" stroke="#E6EAF2"/>
<path d="M339.605 781.948L308.979 781.387C307.198 781.354 305.73 782.861 305.698 784.752L305.328 807.007C305.296 808.898 306.714 810.457 308.495 810.49L339.121 811.051C340.902 811.084 342.37 809.577 342.402 807.686L342.772 785.431C342.804 783.54 341.386 781.98 339.605 781.948Z" fill="#F5F7FB" stroke="#E6EAF2"/>
<path opacity="0.4" d="M381.502 782.697L350.875 782.136C349.095 782.104 347.626 783.61 347.595 785.501L347.224 807.757C347.193 809.648 348.611 811.207 350.391 811.24L381.018 811.8C382.798 811.833 384.267 810.327 384.298 808.436L384.669 786.18C384.7 784.289 383.282 782.73 381.502 782.697Z" fill="#3CD39E"/>
<path d="M423.398 783.447L392.772 782.886C390.991 782.853 389.523 784.36 389.491 786.251L389.121 808.506C389.089 810.397 390.507 811.956 392.288 811.989L422.914 812.55C424.695 812.582 426.164 811.076 426.195 809.185L426.565 786.929C426.597 785.039 425.179 783.479 423.398 783.447Z" fill="#F5F7FB" stroke="#E6EAF2"/>
<path d="M471.741 784.314L434.668 783.635C432.888 783.602 431.419 785.109 431.388 787L431.017 809.253C430.986 811.144 432.404 812.703 434.184 812.736L471.257 813.415C473.037 813.447 474.506 811.941 474.537 810.05L474.907 787.797C474.939 785.906 473.521 784.347 471.741 784.314Z" fill="#F5F7FB" stroke="#E6EAF2"/>
<path d="M234.715 848.101L508.668 853.108L536.967 896.101L205 890.035L234.715 848.101Z" fill="#AAAFBC" stroke="#878D9B"/>
<path d="M249.777 850.58L491.493 854.983L500.934 868.777L239.881 864.021L249.777 850.58Z" fill="#2E323D"/>
<path d="M389.698 869.373L351.021 868.666C350.131 868.65 349.397 869.401 349.381 870.345L349.325 873.763C349.309 874.706 350.018 875.485 350.908 875.501L389.584 876.208C390.474 876.224 391.208 875.472 391.224 874.529L391.281 871.111C391.297 870.168 390.588 869.389 389.698 869.373Z" fill="#959BA8"/>
<path d="M119 946.461L131 838.861C134 808.118 254 808.118 263 838.861L289 946.461H119Z" fill="#1C1E2D"/>
</g>
<defs>
<linearGradient id="paint0_linear_1_4" x1="-7" y1="0" x2="937.265" y2="838.023" gradientUnits="userSpaceOnUse">
<stop stop-color="#F9FAFF"/>
<stop offset="0.6" stop-color="#F3F5FF"/>
<stop offset="1" stop-color="#E8ECFB"/>
</linearGradient>
<linearGradient id="paint1_linear_1_4" x1="450" y1="0" x2="1083.02" y2="205.909" gradientUnits="userSpaceOnUse">
<stop stop-color="white" stop-opacity="0.7"/>
<stop offset="0.4" stop-color="white" stop-opacity="0.2"/>
<stop offset="1" stop-color="white" stop-opacity="0"/>
</linearGradient>
<linearGradient id="paint2_linear_1_4" x1="673.087" y1="491.522" x2="673.087" y2="735.779" gradientUnits="userSpaceOnUse">
<stop stop-color="#DBE1FA"/>
<stop offset="1" stop-color="#C5CEF4"/>
</linearGradient>
<linearGradient id="paint3_linear_1_4" x1="620.839" y1="532.231" x2="620.839" y2="735.779" gradientUnits="userSpaceOnUse">
<stop stop-color="#DBE1FA"/>
<stop offset="1" stop-color="#C5CEF4"/>
</linearGradient>
<linearGradient id="paint4_linear_1_4" x1="577.299" y1="572.941" x2="577.299" y2="735.779" gradientUnits="userSpaceOnUse">
<stop stop-color="#DBE1FA"/>
<stop offset="1" stop-color="#C5CEF4"/>
</linearGradient>
<linearGradient id="paint5_linear_1_4" x1="276" y1="60" x2="276" y2="735.779" gradientUnits="userSpaceOnUse">
<stop stop-color="#E2E7FC" stop-opacity="0.6"/>
<stop offset="1" stop-color="#D3DAF8" stop-opacity="0.3"/>
</linearGradient>
<linearGradient id="paint6_linear_1_4" x1="6" y1="750.219" x2="6" y2="903.933" gradientUnits="userSpaceOnUse">
<stop stop-color="#E3E8FF"/>
<stop offset="1" stop-color="#C7CFF6"/>
</linearGradient>
<linearGradient id="paint7_linear_1_4" x1="6" y1="895.735" x2="6" y2="946.973" gradientUnits="userSpaceOnUse">
<stop stop-color="#939ECF"/>
<stop offset="1" stop-color="#6F79AA"/>
</linearGradient>
<linearGradient id="paint8_linear_1_4" x1="226" y1="812.73" x2="646" y2="812.73" gradientUnits="userSpaceOnUse">
<stop stop-color="#555E8D" stop-opacity="0.3"/>
<stop offset="1" stop-color="#555E8D" stop-opacity="0"/>
</linearGradient>
<linearGradient id="paint9_linear_1_4" x1="556" y1="825.027" x2="646" y2="825.027" gradientUnits="userSpaceOnUse">
<stop stop-color="#555E8D" stop-opacity="0.3"/>
<stop offset="1" stop-color="#555E8D" stop-opacity="0"/>
</linearGradient>
<filter id="smokeBlur" x="548" y="700" width="70" height="95" filterUnits="userSpaceOnUse" color-interpolation-filters="sRGB">
	<feGaussianBlur stdDeviation="1.5" />
</filter>
<clipPath id="clip0_1_4">
<rect width="800" height="1076" fill="white"/>
</clipPath>
</defs>
</svg>
